<svg width="64" height="64" viewBox="0 0 64 64" xmlns="http://www.w3.org/2000/svg">
  <rect width="64" height="64" rx="14" fill="#4c1d95"/>
  <path d="M32 56c-3 0-5 2.5-5 6 0 0 2.2-1.4 5-1.4S37 62 37 62c0-3.5-2-6-5-6z" fill="#fb923c"/>
  <path d="M23 40c-4 1.6-6.5 5.5-6.5 10.5 3.2-.8 5.6-2.4 7.2-4.8z" fill="#a78bfa"/>
  <path d="M41 40c4 1.6 6.5 5.5 6.5 10.5-3.2-.8-5.6-2.4-7.2-4.8z" fill="#a78bfa"/>
  <path d="M32 8c6 4.4 10 12 10 22 0 7-1.8 12-3.4 15.5H25.4C23.8 42 22 37 22 30c0-10 4-17.6 10-22z" fill="#f5f3ff" stroke="#a78bfa" stroke-width="2"/>
  <circle cx="32" cy="26" r="6" fill="#22d3ee" stroke="#0891b2" stroke-width="2"/>
</svg>
